<svg width="100" height="100" viewBox="0 0 100 100" fill="none" xmlns="http://www.w3.org/2000/svg">
<circle cx="50" cy="50" r="49" stroke="#C5CDD1" stroke-width="2"/>
<path d="M65.4991 50.8892V34.7156C65.4991 33.0084 64.6812 31.383 63.3134 30.365L56.2217 25.0836V21.6223H57.2558V14.0009C57.2556 11.795 55.4606 10 53.2542 10H46.2448C44.0391 10 42.2384 11.795 42.2384 14.0009V21.6225H43.2773V25.0838L36.1856 30.3652C34.8178 31.3831 34 33.0086 34 34.7158V50.8894L36.2272 53.1159C35.1573 54.2425 34.5658 55.713 34.5658 57.2767V82.3786C34.5658 84.4153 35.358 86.3283 36.798 87.7681C38.2377 89.2078 40.1511 90 42.1823 90H57.3117C59.3484 90 61.2614 89.2078 62.7011 87.768C64.1416 86.3281 64.9333 84.4152 64.9333 82.3784V57.2766C64.9333 55.7128 64.3417 54.2425 63.267 53.1158L64.5939 51.7942L65.4991 50.8892ZM60.737 51.3263C59.8448 52.4773 59.9291 54.1388 60.9836 55.1934C61.5391 55.7488 61.8478 56.4947 61.8478 57.2766V82.3784C61.8478 83.582 61.3694 84.7337 60.5209 85.5877C59.667 86.4361 58.5153 86.9145 57.3117 86.9145H42.1823C40.9842 86.9145 39.827 86.4361 38.978 85.5877C38.5514 85.1605 38.2223 84.6569 37.9959 84.1113C37.7694 83.5661 37.6517 82.9803 37.6517 82.3784V57.2766C37.6517 56.4947 37.96 55.7488 38.5105 55.1934C39.0866 54.6227 39.3741 53.8672 39.3741 53.1158C39.3741 52.4786 39.1684 51.8408 38.7522 51.3109H52.3984L60.737 51.3263ZM58.6211 30.7403H48.7448L40.872 30.7202L46.3633 26.6314V21.6223H53.1364V26.6314L56.2041 28.9159L58.6211 30.7403ZM54.6842 14.3762V19.0509H53.1364H46.3633H44.8098V14.3762V14.0009C44.8098 13.2142 45.4527 12.5714 46.2448 12.5714H53.2541C54.0462 12.5714 54.6842 13.2142 54.6842 14.0009V14.3762Z" fill="#C5CDD1"/>
<path d="M43.6217 57.5903H43.5966V81.4117H45.6536V57.5903H43.6337H43.6217Z" fill="#C5CDD1"/>
<path d="M55.9031 57.6147V57.5903H53.883H53.8706H53.8456V81.3141V81.3867V81.4117H55.9031V57.6873V57.6147Z" fill="#C5CDD1"/>
<path d="M56.9467 53.8H42.5474V54.8284H56.9467V53.8Z" fill="#C5CDD1"/>
</svg>
