<svg width="100" height="100" viewBox="0 0 100 100" fill="none" xmlns="http://www.w3.org/2000/svg">
<circle cx="50" cy="50" r="49" stroke="#C5CDD1" stroke-width="2"/>
<path d="M73.2828 39.5216C69.6769 33.8867 67.1964 30.0562 63.1413 20.5909C63.1413 20.5909 60.2116 24.4239 57.9581 30.0563C56.9108 26.4308 55.0016 24.8097 52.775 21.0402C49.8453 16.0841 49.3936 10 49.3936 10C49.3936 10 44.6622 12.7052 41.5055 19.463C38.3536 26.2256 38.5758 34.1114 34.9722 37.7198C33.6197 30.508 30.2383 28.4816 30.2383 28.4816C30.2383 28.4816 28.2095 34.5606 26.8594 38.6183C23.2534 45.8302 21 52.9005 21 60.9303C21 68.9552 24.252 76.2258 29.5156 81.4845C34.7769 86.7481 42.045 90 50.0698 90C58.0972 90 65.3653 86.748 70.6266 81.4844C75.8878 76.2256 79.1397 68.955 79.1397 60.9302C79.1397 52.9005 76.4395 44.9292 73.2828 39.5216ZM62.6578 78.4766C59.2959 81.8359 54.8258 83.6914 50.0698 83.6914C45.3139 83.6914 40.8437 81.8359 37.4819 78.4766C34.1177 75.1123 32.267 70.642 32.267 65.8886C32.267 64.2236 32.3989 62.578 32.6723 60.9081C33.6197 57.0995 35.1236 51.6894 35.1236 51.6894C35.1236 51.6894 38.937 55.1512 39.628 57.3973C40.8316 61.3036 42.6333 54.995 44.2105 51.4647C45.563 49.8875 47.1206 44.8484 48.1631 41.6991L57.5064 58.6766L63.8345 50.6566C65.8366 54.2845 67.875 60.0316 67.875 65.8884C67.875 70.642 66.0195 75.1123 62.6578 78.4766Z" fill="#C5CDD1"/>
</svg>
