<svg xmlns="http://www.w3.org/2000/svg" xmlns:xlink="http://www.w3.org/1999/xlink" width="61.352" height="61.352" viewBox="0 0 61.352 61.352"><defs><style>.a{fill:#0271b4;}.b{filter:url(#a);}</style><filter id="a" x="0" y="0" width="61.352" height="61.352" filterUnits="userSpaceOnUse"><feOffset dy="3" input="SourceAlpha"/><feGaussianBlur stdDeviation="3" result="b"/><feFlood flood-opacity="0.161"/><feComposite operator="in" in2="b"/><feComposite in="SourceGraphic"/></filter></defs><g transform="translate(-84.244 -30.244)"><path class="a" d="M159.933,148.486h-5.079a.953.953,0,0,1-.953-.953v-5.08a.953.953,0,0,0-.953-.953h-3.513a.953.953,0,0,0-.953.953v5.08a.953.953,0,0,1-.953.953h-5.079a.953.953,0,0,0-.953.953v3.513a.953.953,0,0,0,.953.953h5.079a.953.953,0,0,1,.953.953v5.079a.953.953,0,0,0,.953.953h3.513a.953.953,0,0,0,.953-.953v-5.079a.953.953,0,0,1,.953-.953h5.079a.953.953,0,0,0,.953-.953v-3.513A.953.953,0,0,0,159.933,148.486Z" transform="translate(-36.271 -93.275)"/><g class="b" transform="matrix(1, 0, 0, 1, 84.24, 30.24)"><path class="a" d="M21.676,0A21.676,21.676,0,1,0,43.352,21.676,21.676,21.676,0,0,0,21.676,0Zm0,37.933A16.257,16.257,0,1,1,37.933,21.676,16.275,16.275,0,0,1,21.676,37.933Z" transform="translate(9 6)"/></g></g></svg>