<svg width="100" height="100" viewBox="0 0 100 100" fill="none" xmlns="http://www.w3.org/2000/svg">
<circle cx="50" cy="50" r="49" stroke="#0272B6" stroke-width="2"/>
<path d="M75.8891 24.1089C75.7577 23.5556 75.5245 23.0227 75.2412 22.53L75.2381 22.5259C75.0883 22.2662 74.9362 22.0423 74.7444 21.7631C74.0853 20.8156 72.9952 19.3731 72.0444 18.1298C71.568 17.5067 71.1306 16.942 70.8134 16.5323V10H29.2288V16.5325C28.8213 17.0581 28.2197 17.8373 27.5842 18.672C27.0245 19.407 26.4445 20.1781 25.9548 20.8464C25.7105 21.1811 25.4888 21.4902 25.2978 21.7642C25.1058 22.0434 24.9538 22.2673 24.8039 22.527C24.5195 23.0219 24.2845 23.5547 24.153 24.1089C24.0195 24.6633 24 25.1694 24 25.5842C24.0011 26.007 24.0175 26.3767 24.0175 26.8428C24.0175 28.4003 24.0175 76.5244 24.0175 78.5489C24.0216 79.7911 24.1797 81.1411 24.6088 82.4552C24.8275 83.1122 25.1148 83.7652 25.5472 84.3903C25.9772 85.0094 26.5789 85.6244 27.4197 86.0269C27.8662 86.2466 28.0356 86.4078 28.2111 86.6028C28.3405 86.7517 28.4667 86.9395 28.6455 87.227C28.78 87.4405 28.9411 87.7105 29.1773 88.0289C29.5223 88.5002 30.1003 89.0966 30.8856 89.4733C31.6678 89.8562 32.5375 90.0011 33.443 90H66.5989C67.1398 90 67.6562 89.9506 68.1592 89.8295C68.5977 89.7237 69.0258 89.5595 69.4086 89.3398C70.0862 88.958 70.5739 88.4272 70.8839 88.0022C71.3511 87.3492 71.5483 86.9437 71.7536 86.6963C71.9589 86.4487 72.1108 86.2816 72.6231 86.0269C73.463 85.6244 74.0645 85.0094 74.4947 84.3903C75.1384 83.4509 75.4761 82.4563 75.7062 81.4644C75.9291 80.4727 76.0234 79.4798 76.0244 78.5488C76.0244 76.5242 76.0244 28.4 76.0244 26.8427C76.0244 26.3756 76.0408 26.005 76.0419 25.583C76.042 25.1684 76.0225 24.6634 75.8891 24.1089ZM34.0642 14.8355H65.978V17.8681H34.0642V14.8355ZM70.5239 81.63L70.4664 81.7028C69.4808 82.1802 68.7067 82.8156 68.175 83.4369C67.7644 83.9122 67.4881 84.3567 67.2941 84.6678C67.1483 84.9019 67.0467 85.06 66.9912 85.1328V85.1339C66.9317 85.1461 66.8187 85.1647 66.5991 85.1647H33.4431C33.2306 85.1647 33.1136 85.1472 33.053 85.1339C33.0192 85.0897 32.9687 85.0209 32.8897 84.8936C32.6916 84.5877 32.3755 84.0178 31.8303 83.3947C31.3006 82.7859 30.5378 82.1689 29.5748 81.7017C29.5605 81.6864 29.4937 81.6123 29.4095 81.447C29.3695 81.372 29.3294 81.2798 29.2884 81.1781H70.7467C70.6655 81.3784 70.5834 81.5467 70.5239 81.63ZM71.1892 26.8428C71.1892 28.4003 71.1892 76.5244 71.1892 78.5489C71.1902 78.7173 71.182 78.8959 71.1708 79.0755H28.8777C28.8675 78.8969 28.8531 78.7161 28.8531 78.5489C28.8531 76.5244 28.8531 28.4002 28.8531 26.8428C28.8531 26.27 28.8347 25.8419 28.8356 25.5842C28.8356 25.3192 28.8509 25.2598 28.8552 25.2383C28.8623 25.2156 28.8705 25.1613 29.0008 24.9281C29.0059 24.9169 29.1198 24.7372 29.2719 24.5197C29.8202 23.7281 30.9094 22.2816 31.8384 21.0691C32.1495 20.6625 32.4288 20.3002 32.6834 19.9706H67.3587C67.94 20.7231 68.7181 21.7364 69.4316 22.6861C69.832 23.2209 70.2097 23.7312 70.5055 24.1448C70.6533 24.3502 70.7816 24.533 70.877 24.6745C70.9725 24.8142 71.0403 24.923 71.0423 24.9302L71.0403 24.9261C71.1717 25.1592 71.18 25.2145 71.1861 25.2361C71.1911 25.2587 71.2055 25.3183 71.2066 25.5831C71.2066 25.8419 71.1892 26.27 71.1892 26.8428Z" fill="#0272B6"/>
</svg>
